<svg xmlns="http://www.w3.org/2000/svg" xmlns:xlink="http://www.w3.org/1999/xlink" xmlns:lucid="lucid" width="960" height="1760"><g transform="translate(0 0)" lucid:page-tab-id="0_0"><path d="M40 79.52h286v26.78H40zM326 79.52h308v26.78H326zM634 79.52h316.12v26.78H634z" fill="#3d4752"/><path d="M40 106.3h286v572.18H40z" fill="#d6d6d6"/><path d="M326 106.3h308v572.18H326z" fill="#e4e4e4"/><path d="M634 106.3h316.12v572.18H634z" fill="#f2f2f2"/><path d="M40 79.52v26.78M326 79.52v26.78M634 79.52v26.78M950.12 79.52v26.78M40 106.3v572.18M326 106.3v572.18M634 106.3v572.18M950.12 106.3v572.18M40 79.52h286M326 79.52h308M634 79.52h316.12M40 106.3h286M40 678.48h286M326 106.3h308M326 678.48h308M634 106.3h316.12M634 678.48h316.12" stroke="#000" fill="none"/><use xlink:href="#a" transform="matrix(1,0,0,1,40,79.51780588077963) translate(109.68505859375 18.4658203125)"/><use xlink:href="#b" transform="matrix(1,0,0,1,326,79.51780588077963) translate(85.57275390625 18.4658203125)"/><use xlink:href="#c" transform="matrix(1,0,0,1,326,79.51780588077963) translate(146.01513671875 18.4658203125)"/><use xlink:href="#d" transform="matrix(1,0,0,1,326,79.51780588077963) translate(158.89111328125 18.4658203125)"/><use xlink:href="#e" transform="matrix(1,0,0,1,634,79.51780588077963) translate(144.40234375 18.4658203125)"/><path d="M431.83 120c-6.44 0-11.67 5.22-11.67 11.67v35c0 6.44 5.23 11.67 11.67 11.67h114.34c6.44 0 11.67-5.23 11.67-11.67v-35c0-6.45-5.23-11.67-11.67-11.67z" stroke="#3d4752" stroke-width="2" fill="#d2e5b3"/><use xlink:href="#f" transform="matrix(1,0,0,1,428.16279069767444,128) translate(34.68994140625 26.4658203125)"/><path d="M742.66 160.5c-8.56 0-15.5 6.93-15.5 15.5v46.5c0 8.56 6.94 15.5 15.5 15.5h106.68c8.56 0 15.5-6.94 15.5-15.5V176c0-8.57-6.94-15.5-15.5-15.5z" stroke="#3d4752" stroke-width="2" fill="#d2e5b3"/><use xlink:href="#g" transform="matrix(1,0,0,1,735.1627906976744,168.4947136753981) translate(17.94677734375 27.044921875)"/><use xlink:href="#h" transform="matrix(1,0,0,1,735.1627906976744,168.4947136753981) translate(80.19970703125 27.044921875)"/><use xlink:href="#i" transform="matrix(1,0,0,1,735.1627906976744,168.4947136753981) translate(34.67236328125 44.88671875)"/><path d="M558.84 149.17h78.66c2.76 0 5 2.24 5 5v27.32c0 2.76 2.24 5 5 5h60.43" stroke="#000" stroke-width="2" fill="none"/><path d="M558.84 150.17h-1v-2h1zM722.93 186.5l-14.27 4.63v-9.27z"/><path d="M726.16 186.5l-18.5 6V180.5zm-16.5 3.25l10.03-3.26-10.04-3.26z"/><path d="M419.16 149.17H179c-2.76 0-5 2.24-5 5v44.6" stroke="#000" stroke-width="2" fill="none"/><path d="M420.16 150.17h-1v-2h1z"/><path d="M174 213.76l-4.64-14.26h9.28z" stroke="#000" stroke-width="2"/><path d="M792.46 362.54c1.96-1.96 5.12-1.96 7.08 0l12.92 12.92c1.96 1.96 1.96 5.12 0 7.08l-12.92 12.92c-1.96 1.96-5.12 1.96-7.08 0l-12.92-12.92c-1.96-1.96-1.96-5.12 0-7.08z" stroke="#000" stroke-width="2" fill="#fff"/><path d="M796 239v102.9" stroke="#000" stroke-width="2" fill="none"/><path d="M797 239h-2v-1h2zM796 356.9l-4.64-14.25h9.28z"/><path d="M796 360.15l-6-18.5h12zm-3.26-16.5l3.26 10.03 3.26-10.03zM906.84 374.08l-.3 1.9-2.13 2.9L901 380h-86.15v-2h85.83l2.5-.82 1.45-2 .2-1.26v-71.36h2zm-4.03-175.53l2.92 2.13 1.12 3.4v76.88h-2V204.4l-.82-2.5-2-1.45-1.26-.2h-16.7v-2h16.86zM814.85 380h-1.1l.15-.5-.17-1.5h1.12zM883.34 203.88l-14.27-4.63 14.27-4.64z"/><path d="M884.34 205.26l-18.5-6 18.5-6.02zm-12.03-6l10.04 3.25V196z"/><use xlink:href="#j" transform="matrix(1,0,0,1,867.3872096976743,280.9586679673316) translate(0 14.4)"/><use xlink:href="#k" transform="matrix(1,0,0,1,867.3872096976743,280.9586679673316) translate(32.95 14.4)"/><path d="M724 520c-13.25 0-24 10.75-24 24v72c0 13.25 10.75 24 24 24h144c13.25 0 24-10.75 24-24v-72c0-13.25-10.75-24-24-24z" stroke="#000" stroke-width="2" fill="#d2e5b3"/><path d="M700 564h192" stroke="#000" stroke-width="2" fill="none"/><use xlink:href="#l" transform="matrix(1,0,0,1,738.4,520) translate(7.59912109375 26.9658203125)"/><use xlink:href="#m" transform="matrix(1,0,0,1,738.4,520) translate(56.70361328125 26.9658203125)"/><use xlink:href="#n" transform="matrix(1,0,0,1,719.2,580) translate(3.013671875 18.044921875)"/><use xlink:href="#o" transform="matrix(1,0,0,1,719.2,580) translate(45.0869140625 18.044921875)"/><use xlink:href="#p" transform="matrix(1,0,0,1,719.2,580) translate(118.3349609375 18.044921875)"/><use xlink:href="#q" transform="matrix(1,0,0,1,719.2,580) translate(33.96875 35.88671875)"/><use xlink:href="#r" transform="matrix(1,0,0,1,719.2,580) translate(56.4951171875 35.88671875)"/><path d="M489 179.34v37.75c0 .03-.04.07-.08.07s-.08.03-.08.08v19.5" stroke="#000" stroke-width="2" fill="none"/><path d="M490 179.34h-2v-1h2zM488.84 251.76l-4.64-14.26h9.27z"/><path d="M488.84 255l-6-18.5h12zm-3.26-16.5l3.26 10.03 3.26-10.03zM661 574.84l.82 2.5 2 1.46 1.26.2H699v2h-34.08l-1.9-.3-2.9-2.13-1.12-3.4v-80.4h2zm-2.43-268.02l2.12 2.9.3 1.9V451.6h-2v-139.8l-.2-1.26-1.46-2-2.5-.8h-86.92v-2h87.24zM567.18 311.34l-14.26-4.63 14.26-4.63z"/><path d="M568.18 312.72l-18.5-6 18.5-6.02zm-12.03-6l10.03 3.25v-6.52zM700 581h-1v-2h1z"/><use xlink:href="#s" transform="matrix(1,0,0,1,614.075,451.57810475499446) translate(0 14.4)"/><use xlink:href="#t" transform="matrix(1,0,0,1,614.075,451.57810475499446) translate(0 36)"/><path d="M429.32 261c0-2.76 2.24-5 5-5h109.36c2.76 0 5 2.24 5 5v98.6c0 2.76-1.42 6.73-3.18 8.86l-53.32 64.68c-1.76 2.13-4.6 2.13-6.36 0l-53.32-64.68c-1.76-2.13-3.18-6.1-3.18-8.86z" stroke="#000" stroke-width="2" fill="#d2e5b3"/><use xlink:href="#u" transform="matrix(1,0,0,1,429.3188937918371,256) translate(13.564570312499997 87.41796875)"/><use xlink:href="#v" transform="matrix(1,0,0,1,429.3188937918371,256) translate(36.3985546875 105.259765625)"/><path d="M75.24 238v297c0 2.76 2.24 5 5 5h187.52c2.76 0 5-2.24 5-5V238" stroke="#000" stroke-width="2" fill="none"/><path d="M75.24 223c0-2.76 2.24-5 5-5h187.52c2.76 0 5 2.24 5 5v30c0 2.76-2.24 5-5 5H80.24c-2.76 0-5-2.24-5-5z" stroke="#000" stroke-width="2" fill="#d2e5b3"/><use xlink:href="#w" transform="matrix(1,0,0,1,95.24418604651163,217.99999999999997) translate(22.6357421875 24.9658203125)"/><use xlink:href="#x" transform="matrix(1,0,0,1,95.24418604651163,217.99999999999997) translate(94.5390625 24.9658203125)"/><path d="M88.74 402.17c0-2.77 2.24-5 5-5h126.8c2.77 0 6.94 1.12 9.33 2.5l25.55 14.82c2.4 1.38 2.4 3.62 0 5l-25.55 14.83c-2.4 1.38-6.56 2.5-9.33 2.5H93.74c-2.76 0-5-2.23-5-5z" stroke="#000" stroke-width="2" fill="#fff"/><use xlink:href="#y" transform="matrix(1,0,0,1,96.74418604651163,405.16514731140177) translate(15.074999999999996 15.6)"/><use xlink:href="#z" transform="matrix(1,0,0,1,96.74418604651163,405.16514731140177) translate(38.025 15.6)"/><path d="M88.74 466c0-2.76 2.24-5 5-5h126.8c2.77 0 6.67 1.5 8.74 3.33L256 488.17c2.07 1.84 2.07 4.82 0 6.66l-26.72 23.84c-2.07 1.84-5.97 3.33-8.74 3.33H93.74c-2.76 0-5-2.24-5-5z" stroke="#000" stroke-width="2" fill="#fff"/><use xlink:href="#A" transform="matrix(1,0,0,1,96.74418604651163,469) translate(39.025 15.299999999999999)"/><use xlink:href="#B" transform="matrix(1,0,0,1,96.74418604651163,469) translate(12.624999999999993 36.9)"/><path d="M88.74 285c0-2.76 2.24-5 5-5h126.8c2.77 0 6.46 1.7 8.25 3.8l27.7 32.4c1.8 2.1 1.8 5.5 0 7.6l-27.7 32.4c-1.8 2.1-5.5 3.8-8.26 3.8H93.74c-2.76 0-5-2.24-5-5z" stroke="#000" stroke-width="2" fill="#fff"/><use xlink:href="#C" transform="matrix(1,0,0,1,96.74418604651163,288) translate(41.7 14.4)"/><use xlink:href="#D" transform="matrix(1,0,0,1,96.74418604651163,288) translate(14.074999999999996 36)"/><use xlink:href="#E" transform="matrix(1,0,0,1,96.74418604651163,288) translate(40.05 57.6)"/><path d="M258.82 320H295c2.76 0 5-2.24 5-5v-35.04c0-2.76 2.24-5 5-5h105.08" stroke="#000" stroke-width="2" fill="none"/><path d="M258.82 321h-1.15l.17-.78-.17-1.22h1.15zM425.08 274.96l-14.26 4.63v-9.28z"/><path d="M428.32 274.96l-18.5 6v-12zm-16.5 3.26l10.03-3.26-10.03-3.26zM351 412.08l-.3 1.9-2.13 2.9-3.4 1.12h-87.14v-2h86.8l2.5-.82 1.47-2 .2-1.26V397.6h2zm59.08-100.25h-55l-1.26.2-2 1.46-.82 2.5v60h-2v-60.33l1.1-3.4 2.92-2.13 1.9-.3h55.16zM258.03 418h-1.3l.4-1.55-.4-.45h1.3zM425.08 310.83l-14.26 4.64v-9.28z"/><path d="M428.32 310.83l-18.5 6v-12zm-16.5 3.26l10.03-3.27-10.03-3.26z"/><use xlink:href="#F" transform="matrix(1,0,0,1,278.5,375.99775523128767) translate(0 14.4)"/><use xlink:href="#G" transform="matrix(1,0,0,1,278.5,375.99775523128767) translate(94.40000000000002 14.4)"/><path d="M391 486.58l-.3 1.9-2.13 2.9-3.4 1.12H258.43v-2h126.4l2.5-.82 1.46-2 .2-1.26v-10h2zm0-31.76h-2V397.6h2zm19.08-107.32h-15l-1.26.2-2 1.46-.82 2.5V376h-2v-24.66l1.1-3.4 2.92-2.13 1.9-.3h15.16z"/><path d="M258.44 492.5h-1.07l.13-.27-.15-1.73h1.1zM425.08 346.5l-14.26 4.64v-9.28z"/><path d="M428.32 346.5l-18.5 6v-12zm-16.5 3.26l10.03-3.26-10.03-3.26z"/><use xlink:href="#F" transform="matrix(1,0,0,1,318.5,454.8220924974855) translate(0 14.4)"/><use xlink:href="#G" transform="matrix(1,0,0,1,318.5,454.8220924974855) translate(94.40000000000002 14.4)"/><path d="M797 500.76h-2v-31.53h2zm0-53.13h-2v-49.78h2zM797 397.85h-2v-1.1l.5.15 1.5-.17zM796 515.76l-4.64-14.26h9.28z"/><path d="M796 519l-6-18.5h12zm-3.26-16.5l3.26 10.03 3.26-10.03z"/><use xlink:href="#H" transform="matrix(1,0,0,1,774.025,447.62578833706374) translate(0 14.4)"/><path d="M348 625c0-2.76 2.24-5 5-5h272c2.76 0 5 2.24 5 5v30c0 2.76-2.24 5-5 5H353c-2.76 0-5-2.24-5-5z" stroke="#000" stroke-width="2"/><path d="M108 850c-15.46 0-28 12.54-28 28v84c0 15.46 12.54 28 28 28h144c15.46 0 28-12.54 28-28v-84c0-15.46-12.54-28-28-28z" stroke="#000" stroke-width="2" fill="#fff"/><path d="M80 894h200" stroke="#000" stroke-width="2" fill="none"/><use xlink:href="#I" transform="matrix(1,0,0,1,120,850) translate(0.5249999999999986 25.6)"/><use xlink:href="#J" transform="matrix(1,0,0,1,120,850) translate(47.525 25.6)"/><use xlink:href="#K" transform="matrix(1,0,0,1,100,910) translate(26.025 35.6)"/><use xlink:href="#L" transform="matrix(1,0,0,1,100,910) translate(62.975 35.6)"/><use xlink:href="#M" transform="matrix(1,0,0,1,100,910) translate(82.975 35.6)"/><path d="M344 860c-13.25 0-24 10.75-24 24v72c0 13.25 10.75 24 24 24h112c13.25 0 24-10.75 24-24v-72c0-13.25-10.75-24-24-24z" stroke="#000" stroke-width="2" fill="#fff"/><path d="M320 904h160" stroke="#000" stroke-width="2" fill="none"/><use xlink:href="#y" transform="matrix(1,0,0,1,352,860) translate(0.5499999999999972 25.6)"/><use xlink:href="#J" transform="matrix(1,0,0,1,352,860) translate(23.5 25.6)"/><use xlink:href="#N" transform="matrix(1,0,0,1,336,920) translate(7.924999999999997 14.799999999999999)"/><use xlink:href="#O" transform="matrix(1,0,0,1,336,920) translate(48.175 14.799999999999999)"/><use xlink:href="#P" transform="matrix(1,0,0,1,336,920) translate(74.125 14.799999999999999)"/><use xlink:href="#Q" transform="matrix(1,0,0,1,336,920) translate(89.125 14.799999999999999)"/><use xlink:href="#R" transform="matrix(1,0,0,1,336,920) translate(39.05 36.4)"/><path d="M526 866c-14.36 0-26 11.64-26 26v78c0 14.36 11.64 26 26 26h148c14.36 0 26-11.64 26-26v-78c0-14.36-11.64-26-26-26z" stroke="#000" stroke-width="2" fill="#fff"/><path d="M500 910h200" stroke="#000" stroke-width="2" fill="none"/><use xlink:href="#H" transform="matrix(1,0,0,1,540,866) translate(38.025 25.6)"/><use xlink:href="#S" transform="matrix(1,0,0,1,520,926) translate(14.149999999999991 14.4)"/><use xlink:href="#T" transform="matrix(1,0,0,1,520,926) translate(104 14.4)"/><use xlink:href="#U" transform="matrix(1,0,0,1,520,926) translate(17.099999999999994 36)"/><use xlink:href="#L" transform="matrix(1,0,0,1,520,926) translate(51 36)"/><use xlink:href="#V" transform="matrix(1,0,0,1,520,926) translate(71 36)"/><use xlink:href="#W" transform="matrix(1,0,0,1,520,926) translate(119.95 36)"/><use xlink:href="#X" transform="matrix(1,0,0,1,520,926) translate(65.025 57.6)"/><path d="M751 860c-13.25 0-24 10.75-24 24v72c0 13.25 10.75 24 24 24h112c13.25 0 24-10.75 24-24v-72c0-13.25-10.75-24-24-24z" stroke="#000" stroke-width="2" fill="#fff"/><path d="M727 904h160" stroke="#000" stroke-width="2" fill="none"/><use xlink:href="#Y" transform="matrix(1,0,0,1,759,860) translate(0.125 25.6)"/><use xlink:href="#Z" transform="matrix(1,0,0,1,759,860) translate(56.925000000000004 25.6)"/><use xlink:href="#aa" transform="matrix(1,0,0,1,743,920) translate(4.725000000000001 14.799999999999999)"/><use xlink:href="#ab" transform="matrix(1,0,0,1,743,920) translate(39.675000000000004 14.799999999999999)"/><use xlink:href="#ac" transform="matrix(1,0,0,1,743,920) translate(64.325 14.799999999999999)"/><use xlink:href="#ad" transform="matrix(1,0,0,1,743,920) translate(84.32499999999999 14.799999999999999)"/><use xlink:href="#ae" transform="matrix(1,0,0,1,743,920) translate(7.674999999999997 36.4)"/><use xlink:href="#af" transform="matrix(1,0,0,1,743,920) translate(80.425 36.4)"/><path d="M379.88 661v44.48c0 2.76-2.23 5-5 5H185c-2.76 0-5 2.24-5 5v115.28" stroke="#000" stroke-width="2" fill="none"/><path d="M380.88 661h-2v-1h2zM180 845.76l-4.64-14.26h9.28z"/><path d="M180 849l-6-18.5h12zm-3.26-16.5l3.26 10.03 3.26-10.03z"/><path d="M418.5 660v75.48c0 2.76-2.24 5-5 5H405c-2.76 0-5 2.24-5 5v95.28" stroke="#000" stroke-width="2" fill="none"/><path/><path d="M400 855.76l-4.64-14.26h9.28z"/><path d="M400 859l-6-18.5h12zm-3.26-16.5l3.26 10.03 3.26-10.03z"/><path d="M592.14 661v44.48c0 2.76 2.24 5 5 5H802c2.76 0 5 2.24 5 5v125.28" stroke="#000" stroke-width="2" fill="none"/><path d="M593.14 661h-2v-1h2zM807 855.76l-4.64-14.26h9.28z"/><path d="M807 859l-6-18.5h12zm-3.26-16.5l3.26 10.03 3.26-10.03z"/><path d="M559.5 660v75c0 2.76 2.24 5 5 5H595c2.76 0 5 2.24 5 5v101.76" stroke="#000" stroke-width="2" fill="none"/><path/><path d="M600 861.76l-4.64-14.26h9.28z"/><path d="M600 865l-6-18.5h12zm-3.26-16.5l3.26 10.03 3.26-10.03z"/><path d="M121.5 765.48c0-2.76 2.24-5 5-5h725c2.76 0 5 2.24 5 5V817c0 2.76-2.24 5-5 5h-725c-2.76 0-5-2.24-5-5z" stroke="#000" stroke-width="2" fill="#ffdf71"/><use xlink:href="#ag" transform="matrix(1,0,0,1,121.5,760.4821941192204) translate(151.46984375 37.646484375)"/><use xlink:href="#ah" transform="matrix(1,0,0,1,121.5,760.4821941192204) translate(237.88390625 37.646484375)"/><use xlink:href="#ai" transform="matrix(1,0,0,1,121.5,760.4821941192204) translate(356.7032421875 37.646484375)"/><use xlink:href="#aj" transform="matrix(1,0,0,1,121.5,760.4821941192204) translate(421.5137890625 37.646484375)"/><use xlink:href="#ak" transform="matrix(1,0,0,1,121.5,760.4821941192204) translate(497.12609375 37.646484375)"/><path d="M524 1040c-13.25 0-24 10.75-24 24v72c0 13.25 10.75 24 24 24h152c13.25 0 24-10.75 24-24v-72c0-13.25-10.75-24-24-24z" stroke="#000" stroke-width="2" fill="#fff"/><path d="M500 1084h200" stroke="#000" stroke-width="2" fill="none"/><use xlink:href="#al" transform="matrix(1,0,0,1,540,1040) translate(0.125 25.6)"/><use xlink:href="#am" transform="matrix(1,0,0,1,540,1040) translate(55.925 25.6)"/><use xlink:href="#k" transform="matrix(1,0,0,1,540,1040) translate(75.925 25.6)"/><use xlink:href="#an" transform="matrix(1,0,0,1,520,1100) translate(8.599999999999994 14.799999999999999)"/><use xlink:href="#ao" transform="matrix(1,0,0,1,520,1100) translate(53.55 14.799999999999999)"/><use xlink:href="#ap" transform="matrix(1,0,0,1,520,1100) translate(107.5 14.799999999999999)"/><use xlink:href="#aq" transform="matrix(1,0,0,1,520,1100) translate(36.525 36.4)"/><use xlink:href="#ar" transform="matrix(1,0,0,1,520,1100) translate(70.475 36.4)"/><path d="M600 997v23.76" stroke="#000" stroke-width="2" fill="none"/><path d="M601 997h-2v-1h2zM600 1035.76l-4.64-14.26h9.28z"/><path d="M600 1039l-6-18.5h12zm-3.26-16.5l3.26 10.03 3.26-10.03z"/><path d="M121.5 1345c0-2.76 2.24-5 5-5h725c2.76 0 5 2.24 5 5v51.52c0 2.76-2.24 5-5 5h-725c-2.76 0-5-2.24-5-5z" stroke="#000" stroke-width="2" fill="#ffdf71"/><use xlink:href="#as" transform="matrix(1,0,0,1,121.5,1340) translate(264.88830078125 37.646484375)"/><use xlink:href="#at" transform="matrix(1,0,0,1,121.5,1340) translate(362.10412109375 37.646484375)"/><path d="M807 981v339.76" stroke="#000" stroke-width="2" fill="none"/><path d="M808 981h-2v-1h2zM807 1335.76l-4.64-14.26h9.28z"/><path d="M807 1339l-6-18.5h12zm-3.26-16.5l3.26 10.03 3.26-10.03z"/><path d="M489 435.6v165.16" stroke="#000" stroke-width="2" fill="none"/><path d="M490 435.6h-2v-1.03l.1.06 1.9-.1zM489 615.76l-4.64-14.26h9.28z"/><path d="M489 619l-6-18.5h12zm-3.26-16.5l3.26 10.03 3.26-10.03z"/><path d="M510 1200c-11.05 0-20 8.95-20 20v60c0 11.05 8.95 20 20 20h180c11.05 0 20-8.95 20-20v-60c0-11.05-8.95-20-20-20z" stroke="#000" stroke-width="2" fill="#fff"/><path d="M490 1244h220" stroke="#000" stroke-width="2" fill="none"/><g><use xlink:href="#au" transform="matrix(1,0,0,1,534,1200) translate(3.0999999999999943 25.6)"/><use xlink:href="#av" transform="matrix(1,0,0,1,534,1200) translate(52.05 25.6)"/></g><g><use xlink:href="#aw" transform="matrix(1,0,0,1,512,1260) translate(33.574999999999996 15.6)"/><use xlink:href="#ax" transform="matrix(1,0,0,1,512,1260) translate(110.475 15.6)"/></g><path d="M600 1161v19.76" stroke="#000" stroke-width="2" fill="none"/><path d="M601 1161h-2v-1h2zM600 1195.76l-4.64-14.26h9.28z"/><path d="M600 1199l-6-18.5h12zm-3.26-16.5l3.26 10.03 3.26-10.03z"/><path d="M600 1301v19.76" stroke="#000" stroke-width="2" fill="none"/><path d="M601 1301h-2v-1h2zM600 1335.76l-4.64-14.26h9.28z"/><path d="M600 1339l-6-18.5h12zm-3.26-16.5l3.26 10.03 3.26-10.03zM178.2 184.26l2.44 3.37.06.37h214.62l3.87 1.26 2.44 3.37.36 2.2v16.08l.67 2.05 1.54 1.12.96.16h62.37v4h-62.7l-2.2-.36-3.37-2.46-1.26-3.85v-16.4l-.15-.94-1.13-1.53-2.04-.67H177.3l-.45-2.8-1.13-1.53-1.88-.62-.63.1-1.53 1.13-1.22 3.72H65.15l-.94.15-1.53 1.13-.67 2.04v1242.04l.15.95 1.13 1.55 2.04.67h418.52l.95-.16 1.53-1.12.67-2.04v-34.68h4v35.32l-1.26 3.87-3.37 2.46-2.2.36H64.66l-3.86-1.27-2.44-3.36-.36-2.22v-1243l1.26-3.87 3.37-2.44 2.2-.36h102.72l.7-2.2 3.38-2.44 2.53-.4z"/><path d="M491 1402.52h-4v-1h4zM482.53 216.23l-14.27 4.63v-9.27z"/><path d="M489 216.23l-22.74 7.38v-14.76zm-18.74 1.88l5.8-1.87-5.8-1.9z"/><g><use xlink:href="#ay" transform="matrix(1,0,0,1,286.37594227335893,164.39999999999998) translate(0 14.4)"/><use xlink:href="#az" transform="matrix(1,0,0,1,286.37594227335893,164.39999999999998) translate(40.6 14.4)"/></g><path d="M216.46 1043.54c1.96-1.96 5.12-1.96 7.08 0l12.92 12.92c1.96 1.96 1.96 5.12 0 7.08l-12.92 12.92c-1.96 1.96-5.12 1.96-7.08 0l-12.92-12.92c-1.96-1.96-1.96-5.12 0-7.08z" stroke="#000" stroke-width="2" fill="#fff"/><path d="M180 991v20.07c0 2.77 2.24 5 5 5h31.58c1.9 0 3.42 1.53 3.42 3.42v3.4" stroke="#000" stroke-width="2" fill="none"/><path d="M181 991h-2v-1h2zM220 1037.9l-4.64-14.25h9.28z"/><path d="M220 1041.15l-6-18.5h12zm-3.26-16.5l3.26 10.03 3.26-10.03z"/><path d="M400 981v339.76" stroke="#000" stroke-width="2" fill="none"/><path d="M401 981h-2v-1h2zM400 1335.76l-4.64-14.26h9.28z"/><path d="M400 1339l-6-18.5h12zm-3.26-16.5l3.26 10.03 3.26-10.03z"/><path d="M256 1180c-8.84 0-16 7.16-16 16v48c0 8.84 7.16 16 16 16h108c8.84 0 16-7.16 16-16v-48c0-8.84-7.16-16-16-16z" stroke="#000" stroke-width="2" fill="#fff"/><g><use xlink:href="#aA" transform="matrix(1,0,0,1,248,1188) translate(3.5999999999999943 35.6)"/><use xlink:href="#aB" transform="matrix(1,0,0,1,248,1188) translate(50.449999999999996 35.6)"/><use xlink:href="#aC" transform="matrix(1,0,0,1,248,1188) translate(90.4 35.6)"/></g><path d="M311 1160.76h-2v-41.16h2zm-2.43-100.65l2.12 2.92.3 1.9V1098h-2v-32.92l-.2-1.26-1.46-2-2.5-.82h-66v-2h66.32z"/><path d="M238.85 1061h-1.1l.15-.5-.17-1.5h1.12zM310 1175.76l-4.64-14.26h9.28z"/><path d="M310 1179l-6-18.5h12zm-3.26-16.5l3.26 10.03 3.26-10.03z"/><g><use xlink:href="#aD" transform="matrix(1,0,0,1,295,1097.9990487514865) translate(0 14.4)"/></g><path d="M310 1261v59.76" stroke="#000" stroke-width="2" fill="none"/><path d="M311 1261h-2v-1h2zM310 1335.76l-4.64-14.26h9.28z"/><path d="M310 1339l-6-18.5h12zm-3.26-16.5l3.26 10.03 3.26-10.03z"/><path d="M91 1180c-8.84 0-16 7.16-16 16v48c0 8.84 7.16 16 16 16h108c8.84 0 16-7.16 16-16v-48c0-8.84-7.16-16-16-16z" stroke="#000" stroke-width="2" fill="#fff"/><g><use xlink:href="#aA" transform="matrix(1,0,0,1,83,1188) translate(9.575000000000003 24.799999999999997)"/><use xlink:href="#aE" transform="matrix(1,0,0,1,83,1188) translate(56.425000000000004 24.799999999999997)"/><use xlink:href="#aF" transform="matrix(1,0,0,1,83,1188) translate(99.425 24.799999999999997)"/><use xlink:href="#aG" transform="matrix(1,0,0,1,83,1188) translate(38 46.4)"/></g><path d="M146 1160.76h-2v-38.93h2zm55.15-99.76h-51l-2.5.82-1.45 2-.2 1.26v35.15h-2v-35.3l.3-1.9 2.13-2.92 3.4-1.1h51.32z"/><path d="M202.1 1059.5l.17 1.5h-1.12v-2h1.1zM145 1175.76l-4.64-14.26h9.28z"/><path d="M145 1179l-6-18.5h12zm-3.26-16.5l3.26 10.03 3.26-10.03z"/><g><use xlink:href="#aH" transform="matrix(1,0,0,1,116.025,1100.2285374554103) translate(0 14.4)"/><use xlink:href="#aC" transform="matrix(1,0,0,1,116.025,1100.2285374554103) translate(27.950000000000003 14.4)"/></g><path d="M145 1261v34c0 2.76 2.24 5 5 5h59.03c2.76 0 5 2.24 5 5v15.76" stroke="#000" stroke-width="2" fill="none"/><path d="M146 1261h-2v-1h2zM214.03 1335.76l-4.63-14.26h9.27z"/><path d="M214.03 1339l-6-18.5h12zm-3.26-16.5l3.26 10.03 3.26-10.03z"/><defs><path fill="#fff" d="M183-342c139 97 272 144 401 141 177-5 266-73 266-205 0-83-46-143-137-186-66-31-351-127-423-171-120-74-184-178-184-324 0-181 82-309 250-380 237-100 547-49 724 90l-107 195c-117-70-238-105-361-105-149 0-223 63-223 189 0 81 64 140 191 179 19 5 54 16 105 32 192 62 321 144 388 246 41 63 61 141 61 234 0 173-87 302-265 376C603 79 286 20 77-135" id="aI"/><path fill="#fff" d="M94-548c0-302 191-568 483-568 311 0 493 270 482 633H370c7 207 93 311 256 311 93 0 196-46 308-137l103 144C907-40 760 22 595 22 293 22 94-237 94-548zm282-120h403c-18-170-85-255-202-255s-184 85-201 255" id="aJ"/><path fill="#fff" d="M783-1116c173 0 283 89 283 264V0H803v-754c0-92-46-138-139-138-73 0-151 30-233 91V0H168v-1094h263v93c117-77 234-115 352-115" id="aK"/><path fill="#fff" d="M925-326c0 213-197 348-437 348C341 22 194-16 47-93l93-183c121 69 236 103 345 103s164-42 164-127c0-41-24-75-72-100-19-10-61-25-126-44-165-49-270-109-315-179-27-41-40-94-40-158 0-210 193-335 432-335 111 0 229 34 354 103l-83 176c-101-56-191-84-271-84-107 0-161 40-161 121 0 37 23 66 70 89 16 12 285 99 327 123 105 60 161 144 161 262" id="aL"/><path fill="#fff" d="M578-1116c196 0 337 93 423 279 40 87 60 183 60 290 0 225-77 390-230 494-74 50-158 75-253 75-197 0-338-93-424-279-40-87-60-183-60-290 0-226 77-391 231-495 73-49 158-74 253-74zm0 194c-139 0-208 125-208 375s69 375 208 375c138 0 207-125 207-375s-69-375-207-375" id="aM"/><path fill="#fff" d="M431-770V0H168v-1094h263v110c156-133 232-175 396-74l-84 220c-129-52-218-25-312 68" id="aN"/><g id="a"><use transform="matrix(0.0087890625,0,0,0.0087890625,0,0)" xlink:href="#aI"/><use transform="matrix(0.0087890625,0,0,0.0087890625,10.7841796875,0)" xlink:href="#aJ"/><use transform="matrix(0.0087890625,0,0,0.0087890625,20.91796875,0)" xlink:href="#aK"/><use transform="matrix(0.0087890625,0,0,0.0087890625,31.640625,0)" xlink:href="#aL"/><use transform="matrix(0.0087890625,0,0,0.0087890625,40.46484375,0)" xlink:href="#aM"/><use transform="matrix(0.0087890625,0,0,0.0087890625,50.6162109375,0)" xlink:href="#aN"/><use transform="matrix(0.0087890625,0,0,0.0087890625,57.8056640625,0)" xlink:href="#aL"/></g><path fill="#fff" d="M45-1270v-219h1063v219H713V0H440v-1270H45" id="aO"/><path fill="#fff" d="M538-189h170V0H95v-189h170v-1111H95v-189h613v189H538v1111" id="aP"/><path fill="#fff" d="M205 0v-1489h295l553 1011v-1011h267V0h-290L472-1024V0H205" id="aQ"/><path fill="#fff" d="M491-632h326l-163-487zM1028 0L887-418H421L279 0H11l527-1489h248L1312 0h-284" id="aR"/><path fill="#fff" d="M1236-1489V0H963v-662H478V0H205v-1489h273v608h485v-608h273" id="aS"/><g id="b"><use transform="matrix(0.0087890625,0,0,0.0087890625,0,0)" xlink:href="#aO"/><use transform="matrix(0.0087890625,0,0,0.0087890625,10.1337890625,0)" xlink:href="#aP"/><use transform="matrix(0.0087890625,0,0,0.0087890625,17.19140625,0)" xlink:href="#aQ"/><use transform="matrix(0.0087890625,0,0,0.0087890625,30.5947265625,0)" xlink:href="#aR"/><use transform="matrix(0.0087890625,0,0,0.0087890625,42.50390625,0)" xlink:href="#aS"/></g><path fill="#fff" d="M247 0H0l619-1489h246" id="aT"/><use transform="matrix(0.0087890625,0,0,0.0087890625,0,0)" xlink:href="#aT" id="c"/><path fill="#fff" d="M582-1489l334 833 329-833h295L1695 0h-278l-102-1047-287 738H798l-298-738L397 0H130l154-1489h298" id="aU"/><path fill="#fff" d="M729-499H112v-220h617v220" id="aV"/><path fill="#fff" d="M370-189c227 0 373-85 373-303 0-169-129-251-388-248-51 1-95 3-133 8v-141l391-391H40v-225h907v199L592-932c107 3 203 37 288 101 101 75 151 187 151 336 0 346-290 524-655 524-115 0-225-16-328-49v-231c126 41 233 62 322 62" id="aW"/><path fill="#fff" d="M731-1053c2-147-92-234-239-233-103 0-211 57-322 170L20-1279c174-158 345-237 512-237 281 0 476 170 476 457 0 143-71 300-212 471-85 102-212 225-383 369h586V0H42v-206c274-235 463-421 566-558 82-109 123-206 123-289" id="aX"/><g id="d"><use transform="matrix(0.0087890625,0,0,0.0087890625,0,0)" xlink:href="#aI"/><use transform="matrix(0.0087890625,0,0,0.0087890625,10.423828125,0)" xlink:href="#aO"/><use transform="matrix(0.0087890625,0,0,0.0087890625,20.5576171875,0)" xlink:href="#aU"/><use transform="matrix(0.0087890625,0,0,0.0087890625,36.59765625,0)" xlink:href="#aV"/><use transform="matrix(0.0087890625,0,0,0.0087890625,43.9892578125,0)" xlink:href="#aW"/><use transform="matrix(0.0087890625,0,0,0.0087890625,53.7890625,0)" xlink:href="#aX"/></g><path fill="#fff" d="M867-682L1342 0h-315L578-645H478V0H205v-1489h419c349 0 523 143 523 428 0 191-93 317-280 379zm-389-589v414h119c185 0 277-67 277-200 0-143-84-214-252-214H478" id="aY"/><path fill="#fff" d="M205-1489h426c365 0 548 153 548 458S998-573 635-573H478V0H205v-1489zm273 219v478h161c177 0 265-80 265-239s-88-239-265-239H478" id="aZ"/><path fill="#fff" d="M431-1094V0H168v-1094h263zm0-190H168v-296h263v296" id="ba"/><g id="e"><use transform="matrix(0.0087890625,0,0,0.0087890625,0,0)" xlink:href="#aY"/><use transform="matrix(0.0087890625,0,0,0.0087890625,11.794921875,0)" xlink:href="#aZ"/><use transform="matrix(0.0087890625,0,0,0.0087890625,22.9306640625,0)" xlink:href="#ba"/></g><path fill="#3d4752" d="M183-342c139 97 272 144 401 141 177-5 266-73 266-205 0-83-46-143-137-186-66-31-351-127-423-171-120-74-184-178-184-324 0-181 82-309 250-380 237-100 547-49 724 90l-107 195c-117-70-238-105-361-105-149 0-223 63-223 189 0 81 64 140 191 179 19 5 54 16 105 32 192 62 321 144 388 246 41 63 61 141 61 234 0 173-87 302-265 376C603 79 286 20 77-135" id="bb"/><path fill="#3d4752" d="M45-1270v-219h1063v219H713V0H440v-1270H45" id="bc"/><path fill="#3d4752" d="M491-632h326l-163-487zM1028 0L887-418H421L279 0H11l527-1489h248L1312 0h-284" id="bd"/><path fill="#3d4752" d="M867-682L1342 0h-315L578-645H478V0H205v-1489h419c349 0 523 143 523 428 0 191-93 317-280 379zm-389-589v414h119c185 0 277-67 277-200 0-143-84-214-252-214H478" id="be"/><g id="f"><use transform="matrix(0.0087890625,0,0,0.0087890625,0,0)" xlink:href="#bb"/><use transform="matrix(0.0087890625,0,0,0.0087890625,10.423828125,0)" xlink:href="#bc"/><use transform="matrix(0.0087890625,0,0,0.0087890625,19.40625,0)" xlink:href="#bd"/><use transform="matrix(0.0087890625,0,0,0.0087890625,31.3154296875,0)" xlink:href="#be"/><use transform="matrix(0.0087890625,0,0,0.0087890625,42.486328125,0)" xlink:href="#bc"/></g><path fill="#3d4752" d="M94-548c0-302 191-568 483-568 311 0 493 270 482 633H370c7 207 93 311 256 311 93 0 196-46 308-137l103 144C907-40 760 22 595 22 293 22 94-237 94-548zm282-120h403c-18-170-85-255-202-255s-184 85-201 255" id="bf"/><path fill="#3d4752" d="M711-687c-7-170-35-229-188-230-74 0-147 18-220 53l-88-179c111-51 229-76 353-76 303 0 405 148 405 459V0H717v-81C651-13 566 21 461 21 236 21 81-120 81-346c0-158 85-260 254-311 103-31 245-40 376-30zM326-329c0 101 84 155 189 155 91 0 157-36 196-109v-226c-23-4-49-6-78-6-205 0-307 62-307 186" id="bg"/><path fill="#3d4752" d="M431-770V0H168v-1094h263v110c156-133 232-175 396-74l-84 220c-129-52-218-25-312 68" id="bh"/><path fill="#3d4752" d="M94-547c0-294 207-569 494-569 131 0 260 50 386 150L872-811c-96-74-188-111-277-112-163-2-225 186-225 376 0 251 82 377 246 377 81 0 168-36 260-107l103 137C862-32 733 22 593 22 292 22 94-208 94-547" id="bi"/><path fill="#3d4752" d="M784-1116c178 0 282 88 282 264V0H803v-754c0-92-46-138-138-138-74 0-152 32-234 95V0H168v-1580h263v579c117-77 234-115 353-115" id="bj"/><g id="g"><use transform="matrix(0.0087890625,0,0,0.0087890625,0,0)" xlink:href="#bb"/><use transform="matrix(0.0087890625,0,0,0.0087890625,10.7841796875,0)" xlink:href="#bf"/><use transform="matrix(0.0087890625,0,0,0.0087890625,20.91796875,0)" xlink:href="#bg"/><use transform="matrix(0.0087890625,0,0,0.0087890625,30.8232421875,0)" xlink:href="#bh"/><use transform="matrix(0.0087890625,0,0,0.0087890625,37.65234375,0)" xlink:href="#bi"/><use transform="matrix(0.0087890625,0,0,0.0087890625,46.2568359375,0)" xlink:href="#bj"/></g><path fill="#3d4752" d="M806-1530l-66 177c-158-82-260-41-259 189v70h264v199H481V0H218v-895H19v-199h199c-9-207 32-364 147-449 126-93 294-66 441 13" id="bk"/><path fill="#3d4752" d="M578-1116c196 0 337 93 423 279 40 87 60 183 60 290 0 225-77 390-230 494-74 50-158 75-253 75-197 0-338-93-424-279-40-87-60-183-60-290 0-226 77-391 231-495 73-49 158-74 253-74zm0 194c-139 0-208 125-208 375s69 375 208 375c138 0 207-125 207-375s-69-375-207-375" id="bl"/><g id="h"><use transform="matrix(0.0087890625,0,0,0.0087890625,0,0)" xlink:href="#bk"/><use transform="matrix(0.0087890625,0,0,0.0087890625,6.5126953125,0)" xlink:href="#bl"/><use transform="matrix(0.0087890625,0,0,0.0087890625,16.6640625,0)" xlink:href="#bh"/></g><path fill="#3d4752" d="M1064-219V0H205v-1489h859v219H478v389h485v219H478v443h586" id="bm"/><path fill="#3d4752" d="M980 0L767-713 556 0H350L25-1094h259l176 672 197-672h231l200 672 173-672h248L1186 0H980" id="bn"/><path fill="#3d4752" d="M1152 0H835L431-519V0H168v-1580h263v869l332-383h308L654-620" id="bo"/><path fill="#3d4752" d="M925-326c0 213-197 348-437 348C341 22 194-16 47-93l93-183c121 69 236 103 345 103s164-42 164-127c0-41-24-75-72-100-19-10-61-25-126-44-165-49-270-109-315-179-27-41-40-94-40-158 0-210 193-335 432-335 111 0 229 34 354 103l-83 176c-101-56-191-84-271-84-107 0-161 40-161 121 0 37 23 66 70 89 16 12 285 99 327 123 105 60 161 144 161 262" id="bp"/><g id="i"><use transform="matrix(0.0087890625,0,0,0.0087890625,0,0)" xlink:href="#bm"/><use transform="matrix(0.0087890625,0,0,0.0087890625,10.2568359375,0)" xlink:href="#bn"/><use transform="matrix(0.0087890625,0,0,0.0087890625,23.7392578125,0)" xlink:href="#bl"/><use transform="matrix(0.0087890625,0,0,0.0087890625,33.890625,0)" xlink:href="#bo"/><use transform="matrix(0.0087890625,0,0,0.0087890625,43.8310546875,0)" xlink:href="#bp"/></g><path d="M190 0L58-211 59 0H30v-248h39L202-35l-2-213h31V0h-41" id="bq"/><path d="M100-194c62-1 85 37 85 99 1 63-27 99-86 99S16-35 15-95c0-66 28-99 85-99zM99-20c44 1 53-31 53-75 0-43-8-75-51-75s-53 32-53 75 10 74 51 75" id="br"/><path d="M59-47c-2 24 18 29 38 22v24C64 9 27 4 27-40v-127H5v-23h24l9-43h21v43h35v23H59v120" id="bs"/><g id="j"><use transform="matrix(0.05,0,0,0.05,0,0)" xlink:href="#bq"/><use transform="matrix(0.05,0,0,0.05,12.950000000000001,0)" xlink:href="#br"/><use transform="matrix(0.05,0,0,0.05,22.950000000000003,0)" xlink:href="#bs"/></g><path d="M30 0v-248h187v28H63v79h144v27H63v87h162V0H30" id="bt"/><path d="M206 0h-36l-40-164L89 0H53L-1-190h32L70-26l43-164h34l41 164 42-164h31" id="bu"/><path d="M143 0L79-87 56-68V0H24v-261h32v163l83-92h37l-77 82L181 0h-38" id="bv"/><g id="k"><use transform="matrix(0.05,0,0,0.05,0,0)" xlink:href="#bt"/><use transform="matrix(0.05,0,0,0.05,12,0)" xlink:href="#bu"/><use transform="matrix(0.05,0,0,0.05,24.950000000000003,0)" xlink:href="#br"/><use transform="matrix(0.05,0,0,0.05,34.95,0)" xlink:href="#bv"/></g><path d="M1064-219V0H205v-1489h859v219H478v389h485v219H478v443h586" id="bw"/><path d="M980 0L767-713 556 0H350L25-1094h259l176 672 197-672h231l200 672 173-672h248L1186 0H980" id="bx"/><path d="M578-1116c196 0 337 93 423 279 40 87 60 183 60 290 0 225-77 390-230 494-74 50-158 75-253 75-197 0-338-93-424-279-40-87-60-183-60-290 0-226 77-391 231-495 73-49 158-74 253-74zm0 194c-139 0-208 125-208 375s69 375 208 375c138 0 207-125 207-375s-69-375-207-375" id="by"/><path d="M1152 0H835L431-519V0H168v-1580h263v869l332-383h308L654-620" id="bz"/><g id="l"><use transform="matrix(0.0087890625,0,0,0.0087890625,0,0)" xlink:href="#bw"/><use transform="matrix(0.0087890625,0,0,0.0087890625,10.2568359375,0)" xlink:href="#bx"/><use transform="matrix(0.0087890625,0,0,0.0087890625,23.7392578125,0)" xlink:href="#by"/><use transform="matrix(0.0087890625,0,0,0.0087890625,33.890625,0)" xlink:href="#bz"/></g><path d="M478 0H205v-1489h859v219H478v389h485v219H478V0" id="bA"/><path d="M437 22c-177 0-283-91-283-265v-851h263v755c0 91 46 137 139 137 75 0 152-32 233-95v-797h263V0H789v-93C670-16 552 22 437 22" id="bB"/><path d="M783-1116c173 0 283 89 283 264V0H803v-754c0-92-46-138-139-138-73 0-151 30-233 91V0H168v-1094h263v93c117-77 234-115 352-115" id="bC"/><path d="M94-505c0-321 128-611 419-611 101 0 188 30 263 91v-555h263V-1H787v-91C712-16 620 22 509 22c-171 0-293-85-364-254-34-81-51-172-51-273zm682 228v-551c-64-56-127-84-189-84-145 0-218 134-218 401 0 213 68 320 203 320 69 0 137-29 204-86" id="bD"/><g id="m"><use transform="matrix(0.0087890625,0,0,0.0087890625,0,0)" xlink:href="#bA"/><use transform="matrix(0.0087890625,0,0,0.0087890625,9.4921875,0)" xlink:href="#by"/><use transform="matrix(0.0087890625,0,0,0.0087890625,19.6435546875,0)" xlink:href="#bB"/><use transform="matrix(0.0087890625,0,0,0.0087890625,30.3662109375,0)" xlink:href="#bC"/><use transform="matrix(0.0087890625,0,0,0.0087890625,41.0888671875,0)" xlink:href="#bD"/></g><path d="M750-1295c-235 0-357 269-357 551 0 242 64 406 189 495 115 82 270 77 380-7v-383H663v-213h557v693C1004 37 655 95 402-79 224-202 101-447 102-744s130-540 310-667c233-164 595-116 777 70l-135 170c-93-83-195-124-304-124" id="bE"/><path d="M431-1094V0H168v-1094h263zm0-190H168v-296h263v296" id="bF"/><path d="M452 0L25-1094h272l252 709 263-709h249L634 0H452" id="bG"/><path d="M94-548c0-302 191-568 483-568 311 0 493 270 482 633H370c7 207 93 311 256 311 93 0 196-46 308-137l103 144C907-40 760 22 595 22 293 22 94-237 94-548zm282-120h403c-18-170-85-255-202-255s-184 85-201 255" id="bH"/><g id="n"><use transform="matrix(0.0087890625,0,0,0.0087890625,0,0)" xlink:href="#bE"/><use transform="matrix(0.0087890625,0,0,0.0087890625,11.8564453125,0)" xlink:href="#bF"/><use transform="matrix(0.0087890625,0,0,0.0087890625,17.12109375,0)" xlink:href="#bG"/><use transform="matrix(0.0087890625,0,0,0.0087890625,26.666015625,0)" xlink:href="#bH"/></g><path d="M784-1116c178 0 282 88 282 264V0H803v-754c0-92-46-138-138-138-74 0-152 32-234 95V0H168v-1580h263v579c117-77 234-115 353-115" id="bI"/><path d="M711-687c-7-170-35-229-188-230-74 0-147 18-220 53l-88-179c111-51 229-76 353-76 303 0 405 148 405 459V0H717v-81C651-13 566 21 461 21 236 21 81-120 81-346c0-158 85-260 254-311 103-31 245-40 376-30zM326-329c0 101 84 155 189 155 91 0 157-36 196-109v-226c-23-4-49-6-78-6-205 0-307 62-307 186" id="bJ"/><path d="M1040 13c1 285-186 425-480 425-155 0-288-42-397-127l107-153c86 57 175 86 266 86 162 0 243-86 243-258v-81C700-18 607 20 498 20c-167 0-286-84-355-253-33-79-49-170-49-272 0-252 66-428 193-533 131-108 361-101 490 7v-64h263V13zM777-276v-551c-65-56-128-84-191-84-145 0-217 133-217 399 0 214 67 321 202 321 71 0 139-28 206-85" id="bK"/><g id="o"><use transform="matrix(0.0087890625,0,0,0.0087890625,0,0)" xlink:href="#bI"/><use transform="matrix(0.0087890625,0,0,0.0087890625,10.72265625,0)" xlink:href="#bH"/><use transform="matrix(0.0087890625,0,0,0.0087890625,20.8564453125,0)" xlink:href="#bJ"/><use transform="matrix(0.0087890625,0,0,0.0087890625,30.76171875,0)" xlink:href="#bD"/><use transform="matrix(0.0087890625,0,0,0.0087890625,41.3701171875,0)" xlink:href="#bF"/><use transform="matrix(0.0087890625,0,0,0.0087890625,46.634765625,0)" xlink:href="#bC"/><use transform="matrix(0.0087890625,0,0,0.0087890625,57.357421875,0)" xlink:href="#bK"/></g><path d="M806-1530l-66 177c-158-82-260-41-259 189v70h264v199H481V0H218v-895H19v-199h199c-9-207 32-364 147-449 126-93 294-66 441 13" id="bL"/><g id="p"><use transform="matrix(0.0087890625,0,0,0.0087890625,0,0)" xlink:href="#bF"/><use transform="matrix(0.0087890625,0,0,0.0087890625,5.2646484375,0)" xlink:href="#bC"/><use transform="matrix(0.0087890625,0,0,0.0087890625,15.9873046875,0)" xlink:href="#bL"/><use transform="matrix(0.0087890625,0,0,0.0087890625,22.5,0)" xlink:href="#by"/></g><path d="M503-384c-2 129 8 204 107 204 41 0 91-13 150-38l66 171C737-1 639 22 533 22c-230-2-293-122-293-358v-559H42v-199h198v-395h263v395h265v199H503v511" id="bM"/><g id="q"><use transform="matrix(0.0087890625,0,0,0.0087890625,0,0)" xlink:href="#bM"/><use transform="matrix(0.0087890625,0,0,0.0087890625,7.1015625,0)" xlink:href="#by"/></g><path d="M183-342c139 97 272 144 401 141 177-5 266-73 266-205 0-83-46-143-137-186-66-31-351-127-423-171-120-74-184-178-184-324 0-181 82-309 250-380 237-100 547-49 724 90l-107 195c-117-70-238-105-361-105-149 0-223 63-223 189 0 81 64 140 191 179 19 5 54 16 105 32 192 62 321 144 388 246 41 63 61 141 61 234 0 173-87 302-265 376C603 79 286 20 77-135" id="bN"/><path d="M45-1270v-219h1063v219H713V0H440v-1270H45" id="bO"/><path d="M582-1489l334 833 329-833h295L1695 0h-278l-102-1047-287 738H798l-298-738L397 0H130l154-1489h298" id="bP"/><path d="M729-499H112v-220h617v220" id="bQ"/><path d="M370-189c227 0 373-85 373-303 0-169-129-251-388-248-51 1-95 3-133 8v-141l391-391H40v-225h907v199L592-932c107 3 203 37 288 101 101 75 151 187 151 336 0 346-290 524-655 524-115 0-225-16-328-49v-231c126 41 233 62 322 62" id="bR"/><path d="M731-1053c2-147-92-234-239-233-103 0-211 57-322 170L20-1279c174-158 345-237 512-237 281 0 476 170 476 457 0 143-71 300-212 471-85 102-212 225-383 369h586V0H42v-206c274-235 463-421 566-558 82-109 123-206 123-289" id="bS"/><g id="r"><use transform="matrix(0.0087890625,0,0,0.0087890625,0,0)" xlink:href="#bN"/><use transform="matrix(0.0087890625,0,0,0.0087890625,10.423828125,0)" xlink:href="#bO"/><use transform="matrix(0.0087890625,0,0,0.0087890625,20.5576171875,0)" xlink:href="#bP"/><use transform="matrix(0.0087890625,0,0,0.0087890625,36.59765625,0)" xlink:href="#bQ"/><use transform="matrix(0.0087890625,0,0,0.0087890625,43.9892578125,0)" xlink:href="#bR"/><use transform="matrix(0.0087890625,0,0,0.0087890625,53.7890625,0)" xlink:href="#bS"/></g><path d="M141-36C126-15 110 5 73 4 37 3 15-17 15-53c-1-64 63-63 125-63 3-35-9-54-41-54-24 1-41 7-42 31l-33-3c5-37 33-52 76-52 45 0 72 20 72 64v82c-1 20 7 32 28 27v20c-31 9-61-2-59-35zM48-53c0 20 12 33 32 33 41-3 63-29 60-74-43 2-92-5-92 41" id="bT"/><path d="M108 0H70L1-190h34L89-25l56-165h34" id="bU"/><path d="M24-231v-30h32v30H24zM24 0v-190h32V0H24" id="bV"/><path d="M177-190C167-65 218 103 67 71c-23-6-38-20-44-43l32-5c15 47 100 32 89-28v-30C133-14 115 1 83 1 29 1 15-40 15-95c0-56 16-97 71-98 29-1 48 16 59 35 1-10 0-23 2-32h30zM94-22c36 0 50-32 50-73 0-42-14-75-50-75-39 0-46 34-46 75s6 73 46 73" id="bW"/><path d="M117-194c89-4 53 116 60 194h-32v-121c0-31-8-49-39-48C34-167 62-67 57 0H25l-1-190h30c1 10-1 24 2 32 11-22 29-35 61-36" id="bX"/><g id="s"><use transform="matrix(0.05,0,0,0.05,0,0)" xlink:href="#bq"/><use transform="matrix(0.05,0,0,0.05,12.950000000000001,0)" xlink:href="#bT"/><use transform="matrix(0.05,0,0,0.05,22.950000000000003,0)" xlink:href="#bU"/><use transform="matrix(0.05,0,0,0.05,31.950000000000003,0)" xlink:href="#bV"/><use transform="matrix(0.05,0,0,0.05,35.900000000000006,0)" xlink:href="#bW"/><use transform="matrix(0.05,0,0,0.05,45.900000000000006,0)" xlink:href="#bT"/><use transform="matrix(0.05,0,0,0.05,55.900000000000006,0)" xlink:href="#bs"/><use transform="matrix(0.05,0,0,0.05,60.900000000000006,0)" xlink:href="#bV"/><use transform="matrix(0.05,0,0,0.05,64.85000000000001,0)" xlink:href="#br"/><use transform="matrix(0.05,0,0,0.05,74.85000000000001,0)" xlink:href="#bX"/></g><path d="M212-179c-10-28-35-45-73-45-59 0-87 40-87 99 0 60 29 101 89 101 43 0 62-24 78-52l27 14C228-24 195 4 139 4 59 4 22-46 18-125c-6-104 99-153 187-111 19 9 31 26 39 46" id="bY"/><path d="M210-169c-67 3-38 105-44 169h-31v-121c0-29-5-50-35-48C34-165 62-65 56 0H25l-1-190h30c1 10-1 24 2 32 10-44 99-50 107 0 11-21 27-35 58-36 85-2 47 119 55 194h-31v-121c0-29-5-49-35-48" id="bZ"/><path d="M85-194c31 0 48 13 60 33l-1-100h32l1 261h-30c-2-10 0-23-3-31C134-8 116 4 85 4 32 4 16-35 15-94c0-66 23-100 70-100zm9 24c-40 0-46 34-46 75 0 40 6 74 45 74 42 0 51-32 51-76 0-42-9-74-50-73" id="ca"/><path d="M135-143c-3-34-86-38-87 0 15 53 115 12 119 90S17 21 10-45l28-5c4 36 97 45 98 0-10-56-113-15-118-90-4-57 82-63 122-42 12 7 21 19 24 35" id="cb"/><g id="t"><use transform="matrix(0.05,0,0,0.05,0,0)" xlink:href="#bY"/><use transform="matrix(0.05,0,0,0.05,12.950000000000001,0)" xlink:href="#br"/><use transform="matrix(0.05,0,0,0.05,22.950000000000003,0)" xlink:href="#bZ"/><use transform="matrix(0.05,0,0,0.05,37.900000000000006,0)" xlink:href="#bZ"/><use transform="matrix(0.05,0,0,0.05,52.85,0)" xlink:href="#bT"/><use transform="matrix(0.05,0,0,0.05,62.85,0)" xlink:href="#bX"/><use transform="matrix(0.05,0,0,0.05,72.85000000000001,0)" xlink:href="#ca"/><use transform="matrix(0.05,0,0,0.05,82.85000000000001,0)" xlink:href="#cb"/></g><path d="M205 0v-1489h295l553 1011v-1011h267V0h-290L472-1024V0H205" id="cc"/><g id="u"><use transform="matrix(0.0087890625,0,0,0.0087890625,0,0)" xlink:href="#cc"/><use transform="matrix(0.0087890625,0,0,0.0087890625,13.4033203125,0)" xlink:href="#bJ"/><use transform="matrix(0.0087890625,0,0,0.0087890625,23.30859375,0)" xlink:href="#bG"/><use transform="matrix(0.0087890625,0,0,0.0087890625,32.853515625,0)" xlink:href="#bF"/><use transform="matrix(0.0087890625,0,0,0.0087890625,38.1181640625,0)" xlink:href="#bK"/><use transform="matrix(0.0087890625,0,0,0.0087890625,48.7353515625,0)" xlink:href="#bJ"/><use transform="matrix(0.0087890625,0,0,0.0087890625,58.640625,0)" xlink:href="#bM"/><use transform="matrix(0.0087890625,0,0,0.0087890625,65.7421875,0)" xlink:href="#bF"/><use transform="matrix(0.0087890625,0,0,0.0087890625,71.0068359375,0)" xlink:href="#by"/><use transform="matrix(0.0087890625,0,0,0.0087890625,81.158203125,0)" xlink:href="#bC"/></g><path d="M538-189h170V0H95v-189h170v-1111H95v-189h613v189H538v1111" id="cd"/><path d="M690-1116c279 0 423 232 423 527 0 261-67 439-196 539C782 54 551 41 431-69v481H168v-1506h253v93c71-77 160-115 269-115zM431-810v545c64 56 127 84 189 84 145 0 218-134 218-402 0-214-68-321-203-321-71 0-139 31-204 94" id="ce"/><g id="v"><use transform="matrix(0.0087890625,0,0,0.0087890625,0,0)" xlink:href="#cd"/><use transform="matrix(0.0087890625,0,0,0.0087890625,7.0576171875,0)" xlink:href="#bC"/><use transform="matrix(0.0087890625,0,0,0.0087890625,17.7802734375,0)" xlink:href="#ce"/><use transform="matrix(0.0087890625,0,0,0.0087890625,28.388671875,0)" xlink:href="#bB"/><use transform="matrix(0.0087890625,0,0,0.0087890625,39.111328125,0)" xlink:href="#bM"/></g><path d="M925-326c0 213-197 348-437 348C341 22 194-16 47-93l93-183c121 69 236 103 345 103s164-42 164-127c0-41-24-75-72-100-19-10-61-25-126-44-165-49-270-109-315-179-27-41-40-94-40-158 0-210 193-335 432-335 111 0 229 34 354 103l-83 176c-101-56-191-84-271-84-107 0-161 40-161 121 0 37 23 66 70 89 16 12 285 99 327 123 105 60 161 144 161 262" id="cf"/><path d="M431-770V0H168v-1094h263v110c156-133 232-175 396-74l-84 220c-129-52-218-25-312 68" id="cg"/><g id="w"><use transform="matrix(0.0087890625,0,0,0.0087890625,0,0)" xlink:href="#bN"/><use transform="matrix(0.0087890625,0,0,0.0087890625,10.7841796875,0)" xlink:href="#bH"/><use transform="matrix(0.0087890625,0,0,0.0087890625,20.91796875,0)" xlink:href="#bC"/><use transform="matrix(0.0087890625,0,0,0.0087890625,31.640625,0)" xlink:href="#cf"/><use transform="matrix(0.0087890625,0,0,0.0087890625,40.46484375,0)" xlink:href="#by"/><use transform="matrix(0.0087890625,0,0,0.0087890625,50.6162109375,0)" xlink:href="#cg"/><use transform="matrix(0.0087890625,0,0,0.0087890625,57.8056640625,0)" xlink:href="#cf"/></g><g id="x"><use transform="matrix(0.0087890625,0,0,0.0087890625,0,0)" xlink:href="#cf"/><use transform="matrix(0.0087890625,0,0,0.0087890625,8.82421875,0)" xlink:href="#bM"/><use transform="matrix(0.0087890625,0,0,0.0087890625,15.92578125,0)" xlink:href="#bJ"/><use transform="matrix(0.0087890625,0,0,0.0087890625,25.8310546875,0)" xlink:href="#cg"/><use transform="matrix(0.0087890625,0,0,0.0087890625,33.7236328125,0)" xlink:href="#bM"/></g><path d="M33 0v-248h34V0H33" id="ch"/><path d="M233-177c-1 41-23 64-60 70L243 0h-38l-65-103H63V0H30v-248c88 3 205-21 203 71zM63-129c60-2 137 13 137-47 0-61-80-42-137-45v92" id="ci"/><g id="y"><use transform="matrix(0.05,0,0,0.05,0,0)" xlink:href="#ch"/><use transform="matrix(0.05,0,0,0.05,5,0)" xlink:href="#ci"/></g><path d="M185-189c-5-48-123-54-124 2 14 75 158 14 163 119 3 78-121 87-175 55-17-10-28-26-33-46l33-7c5 56 141 63 141-1 0-78-155-14-162-118-5-82 145-84 179-34 5 7 8 16 11 25" id="cj"/><path d="M140-251c81 0 123 46 123 126C263-46 219 4 140 4 59 4 17-45 17-125s42-126 123-126zm0 227c63 0 89-41 89-101s-29-99-89-99c-61 0-89 39-89 99S79-25 140-24" id="ck"/><g id="z"><use transform="matrix(0.05,0,0,0.05,0,0)" xlink:href="#cj"/><use transform="matrix(0.05,0,0,0.05,12,0)" xlink:href="#bt"/><use transform="matrix(0.05,0,0,0.05,24,0)" xlink:href="#bq"/><use transform="matrix(0.05,0,0,0.05,36.95,0)" xlink:href="#cj"/><use transform="matrix(0.05,0,0,0.05,48.95,0)" xlink:href="#ck"/><use transform="matrix(0.05,0,0,0.05,62.95,0)" xlink:href="#ci"/></g><path d="M30-248c118-7 216 8 213 122C240-48 200 0 122 0H30v-248zM63-27c89 8 146-16 146-99s-60-101-146-95v194" id="cl"/><path d="M143 4C61 4 22-44 18-125c-5-107 100-154 193-111 17 8 29 25 37 43l-32 9c-13-25-37-40-76-40-61 0-88 39-88 99 0 61 29 100 91 101 35 0 62-11 79-27v-45h-74v-28h105v86C228-13 192 4 143 4" id="cm"/><g id="A"><use transform="matrix(0.05,0,0,0.05,0,0)" xlink:href="#bt"/><use transform="matrix(0.05,0,0,0.05,12,0)" xlink:href="#cl"/><use transform="matrix(0.05,0,0,0.05,24.950000000000003,0)" xlink:href="#cm"/><use transform="matrix(0.05,0,0,0.05,38.95,0)" xlink:href="#bt"/></g><path d="M127-220V0H93v-220H8v-28h204v28h-85" id="cn"/><g id="B"><use transform="matrix(0.05,0,0,0.05,0,0)" xlink:href="#cl"/><use transform="matrix(0.05,0,0,0.05,12.950000000000001,0)" xlink:href="#bt"/><use transform="matrix(0.05,0,0,0.05,24.950000000000003,0)" xlink:href="#cn"/><use transform="matrix(0.05,0,0,0.05,35.900000000000006,0)" xlink:href="#bt"/><use transform="matrix(0.05,0,0,0.05,47.900000000000006,0)" xlink:href="#bY"/><use transform="matrix(0.05,0,0,0.05,60.85,0)" xlink:href="#cn"/><use transform="matrix(0.05,0,0,0.05,71.80000000000001,0)" xlink:href="#ch"/><use transform="matrix(0.05,0,0,0.05,76.80000000000001,0)" xlink:href="#ck"/><use transform="matrix(0.05,0,0,0.05,90.80000000000001,0)" xlink:href="#bq"/></g><path d="M205 0l-28-72H64L36 0H1l101-248h38L239 0h-34zm-38-99l-47-123c-12 45-31 82-46 123h93" id="co"/><path d="M30-248c87 1 191-15 191 75 0 78-77 80-158 76V0H30v-248zm33 125c57 0 124 11 124-50 0-59-68-47-124-48v98" id="cp"/><g id="C"><use transform="matrix(0.05,0,0,0.05,0,0)" xlink:href="#cn"/><use transform="matrix(0.05,0,0,0.05,9.600000000000001,0)" xlink:href="#co"/><use transform="matrix(0.05,0,0,0.05,21.6,0)" xlink:href="#cp"/><use transform="matrix(0.05,0,0,0.05,33.6,0)" xlink:href="#bt"/></g><path d="M63-220v92h138v28H63V0H30v-248h175v28H63" id="cq"/><path d="M30 0v-248h33v221h125V0H30" id="cr"/><path d="M266 0h-40l-56-210L115 0H75L2-248h35L96-30l15-64 43-154h32l59 218 59-218h35" id="cs"/><g id="D"><use transform="matrix(0.05,0,0,0.05,0,0)" xlink:href="#cq"/><use transform="matrix(0.05,0,0,0.05,10.950000000000001,0)" xlink:href="#ck"/><use transform="matrix(0.05,0,0,0.05,24.950000000000003,0)" xlink:href="#cr"/><use transform="matrix(0.05,0,0,0.05,34.95,0)" xlink:href="#cr"/><use transform="matrix(0.05,0,0,0.05,44.95,0)" xlink:href="#ck"/><use transform="matrix(0.05,0,0,0.05,58.95,0)" xlink:href="#cs"/><use transform="matrix(0.05,0,0,0.05,75.9,0)" xlink:href="#bt"/><use transform="matrix(0.05,0,0,0.05,87.9,0)" xlink:href="#ci"/></g><path d="M140-251c81 0 123 46 123 126C263-53 228-8 163 1c7 30 30 48 69 40v23c-55 16-95-15-103-61C56-3 17-48 17-125c0-80 42-126 123-126zm0 227c63 0 89-41 89-101s-29-99-89-99c-61 0-89 39-89 99S79-25 140-24" id="ct"/><g id="E"><use transform="matrix(0.05,0,0,0.05,0,0)" xlink:href="#ct"/><use transform="matrix(0.05,0,0,0.05,14,0)" xlink:href="#ci"/><use transform="matrix(0.05,0,0,0.05,26.950000000000003,0)" xlink:href="#cl"/><use transform="matrix(0.05,0,0,0.05,39.900000000000006,0)" xlink:href="#cb"/></g><path d="M232-93c-1 65-40 97-104 97C67 4 28-28 28-90v-158h33c8 89-33 224 67 224 102 0 64-133 71-224h33v155" id="cu"/><g id="F"><use transform="matrix(0.05,0,0,0.05,0,0)" xlink:href="#ch"/><use transform="matrix(0.05,0,0,0.05,5,0)" xlink:href="#bq"/><use transform="matrix(0.05,0,0,0.05,17.950000000000003,0)" xlink:href="#cn"/><use transform="matrix(0.05,0,0,0.05,28.900000000000006,0)" xlink:href="#bt"/><use transform="matrix(0.05,0,0,0.05,40.900000000000006,0)" xlink:href="#ci"/><use transform="matrix(0.05,0,0,0.05,53.85,0)" xlink:href="#cu"/><use transform="matrix(0.05,0,0,0.05,66.80000000000001,0)" xlink:href="#cp"/><use transform="matrix(0.05,0,0,0.05,78.80000000000001,0)" xlink:href="#cn"/></g><g id="G"><use transform="matrix(0.05,0,0,0.05,0,0)" xlink:href="#cj"/><use transform="matrix(0.05,0,0,0.05,12,0)" xlink:href="#cn"/><use transform="matrix(0.05,0,0,0.05,22.6,0)" xlink:href="#ck"/><use transform="matrix(0.05,0,0,0.05,36.6,0)" xlink:href="#cp"/></g><g id="H"><use transform="matrix(0.05,0,0,0.05,0,0)" xlink:href="#bt"/><use transform="matrix(0.05,0,0,0.05,12,0)" xlink:href="#bu"/><use transform="matrix(0.05,0,0,0.05,24.950000000000003,0)" xlink:href="#br"/><use transform="matrix(0.05,0,0,0.05,34.95,0)" xlink:href="#bv"/></g><path d="M100-194c63 0 86 42 84 106H49c0 40 14 67 53 68 26 1 43-12 49-29l28 8c-11 28-37 45-77 45C44 4 14-33 15-96c1-61 26-98 85-98zm52 81c6-60-76-77-97-28-3 7-6 17-6 28h103" id="cv"/><g id="I"><use transform="matrix(0.05,0,0,0.05,0,0)" xlink:href="#bt"/><use transform="matrix(0.05,0,0,0.05,12,0)" xlink:href="#ca"/><use transform="matrix(0.05,0,0,0.05,22,0)" xlink:href="#bW"/><use transform="matrix(0.05,0,0,0.05,32,0)" xlink:href="#cv"/></g><path d="M96-169c-40 0-48 33-48 73s9 75 48 75c24 0 41-14 43-38l32 2c-6 37-31 61-74 61-59 0-76-41-82-99-10-93 101-131 147-64 4 7 5 14 7 22l-32 3c-4-21-16-35-41-35" id="cw"/><g id="J"><use transform="matrix(0.05,0,0,0.05,0,0)" xlink:href="#cl"/><use transform="matrix(0.05,0,0,0.05,12.950000000000001,0)" xlink:href="#cv"/><use transform="matrix(0.05,0,0,0.05,22.950000000000003,0)" xlink:href="#bs"/><use transform="matrix(0.05,0,0,0.05,27.950000000000003,0)" xlink:href="#cv"/><use transform="matrix(0.05,0,0,0.05,37.95,0)" xlink:href="#cw"/><use transform="matrix(0.05,0,0,0.05,46.95,0)" xlink:href="#bs"/><use transform="matrix(0.05,0,0,0.05,51.95,0)" xlink:href="#cv"/><use transform="matrix(0.05,0,0,0.05,61.95,0)" xlink:href="#ca"/></g><g id="K"><use transform="matrix(0.05,0,0,0.05,0,0)" xlink:href="#bq"/><use transform="matrix(0.05,0,0,0.05,12.950000000000001,0)" xlink:href="#bT"/><use transform="matrix(0.05,0,0,0.05,22.950000000000003,0)" xlink:href="#bU"/></g><g id="L"><use transform="matrix(0.05,0,0,0.05,0,0)" xlink:href="#bs"/><use transform="matrix(0.05,0,0,0.05,5,0)" xlink:href="#br"/></g><path d="M101-234c-31-9-42 10-38 44h38v23H63V0H32v-167H5v-23h27c-7-52 17-82 69-68v24" id="cx"/><path d="M179-190L93 31C79 59 56 82 12 73V49c39 6 53-20 64-50L1-190h34L92-34l54-156h33" id="cy"/><g id="M"><use transform="matrix(0.05,0,0,0.05,0,0)" xlink:href="#cj"/><use transform="matrix(0.05,0,0,0.05,12,0)" xlink:href="#bT"/><use transform="matrix(0.05,0,0,0.05,22,0)" xlink:href="#cx"/><use transform="matrix(0.05,0,0,0.05,27,0)" xlink:href="#cv"/><use transform="matrix(0.05,0,0,0.05,37,0)" xlink:href="#bs"/><use transform="matrix(0.05,0,0,0.05,42,0)" xlink:href="#cy"/></g><g id="N"><use transform="matrix(0.05,0,0,0.05,0,0)" xlink:href="#cs"/><use transform="matrix(0.05,0,0,0.05,16.3,0)" xlink:href="#bT"/><use transform="matrix(0.05,0,0,0.05,26.3,0)" xlink:href="#bV"/><use transform="matrix(0.05,0,0,0.05,30.25,0)" xlink:href="#bs"/></g><path d="M114-163C36-179 61-72 57 0H25l-1-190h30c1 12-1 29 2 39 6-27 23-49 58-41v29" id="cz"/><g id="O"><use transform="matrix(0.05,0,0,0.05,0,0)" xlink:href="#cx"/><use transform="matrix(0.05,0,0,0.05,5,0)" xlink:href="#br"/><use transform="matrix(0.05,0,0,0.05,15,0)" xlink:href="#cz"/></g><path d="M27 0v-27h64v-190l-56 39v-29l58-41h29v221h61V0H27" id="cA"/><use transform="matrix(0.05,0,0,0.05,0,0)" xlink:href="#cA" id="P"/><path d="M197 0v-115H63V0H30v-248h33v105h134v-105h34V0h-34" id="cB"/><path d="M9 0v-24l116-142H16v-24h144v24L44-24h123V0H9" id="cC"/><g id="Q"><use transform="matrix(0.05,0,0,0.05,0,0)" xlink:href="#bv"/><use transform="matrix(0.05,0,0,0.05,9,0)" xlink:href="#cB"/><use transform="matrix(0.05,0,0,0.05,21.950000000000003,0)" xlink:href="#cC"/></g><path d="M24 0v-261h32V0H24" id="cD"/><g id="R"><use transform="matrix(0.05,0,0,0.05,0,0)" xlink:href="#cj"/><use transform="matrix(0.05,0,0,0.05,12,0)" xlink:href="#bV"/><use transform="matrix(0.05,0,0,0.05,15.949999999999998,0)" xlink:href="#bW"/><use transform="matrix(0.05,0,0,0.05,25.950000000000003,0)" xlink:href="#bX"/><use transform="matrix(0.05,0,0,0.05,35.95,0)" xlink:href="#bT"/><use transform="matrix(0.05,0,0,0.05,45.95,0)" xlink:href="#cD"/></g><g id="S"><use transform="matrix(0.05,0,0,0.05,0,0)" xlink:href="#bq"/><use transform="matrix(0.05,0,0,0.05,12.950000000000001,0)" xlink:href="#bT"/><use transform="matrix(0.05,0,0,0.05,22.950000000000003,0)" xlink:href="#bU"/><use transform="matrix(0.05,0,0,0.05,31.950000000000003,0)" xlink:href="#bV"/><use transform="matrix(0.05,0,0,0.05,35.900000000000006,0)" xlink:href="#bW"/><use transform="matrix(0.05,0,0,0.05,45.900000000000006,0)" xlink:href="#bT"/><use transform="matrix(0.05,0,0,0.05,55.900000000000006,0)" xlink:href="#bs"/><use transform="matrix(0.05,0,0,0.05,60.900000000000006,0)" xlink:href="#bV"/><use transform="matrix(0.05,0,0,0.05,64.85000000000001,0)" xlink:href="#br"/><use transform="matrix(0.05,0,0,0.05,74.85000000000001,0)" xlink:href="#bX"/></g><g id="T"><use transform="matrix(0.05,0,0,0.05,0,0)" xlink:href="#cq"/><use transform="matrix(0.05,0,0,0.05,10.950000000000001,0)" xlink:href="#cz"/><use transform="matrix(0.05,0,0,0.05,16.900000000000002,0)" xlink:href="#br"/><use transform="matrix(0.05,0,0,0.05,26.900000000000002,0)" xlink:href="#bZ"/></g><g id="U"><use transform="matrix(0.05,0,0,0.05,0,0)" xlink:href="#ci"/><use transform="matrix(0.05,0,0,0.05,12.950000000000001,0)" xlink:href="#cp"/><use transform="matrix(0.05,0,0,0.05,24.950000000000003,0)" xlink:href="#bV"/></g><g id="V"><use transform="matrix(0.05,0,0,0.05,0,0)" xlink:href="#bt"/><use transform="matrix(0.05,0,0,0.05,12,0)" xlink:href="#bu"/><use transform="matrix(0.05,0,0,0.05,24.950000000000003,0)" xlink:href="#br"/><use transform="matrix(0.05,0,0,0.05,34.95,0)" xlink:href="#bv"/></g><g id="W"><use transform="matrix(0.05,0,0,0.05,0,0)" xlink:href="#bU"/><use transform="matrix(0.05,0,0,0.05,9,0)" xlink:href="#bV"/><use transform="matrix(0.05,0,0,0.05,12.949999999999998,0)" xlink:href="#bT"/></g><g id="X"><use transform="matrix(0.05,0,0,0.05,0,0)" xlink:href="#cp"/><use transform="matrix(0.05,0,0,0.05,12,0)" xlink:href="#ch"/><use transform="matrix(0.05,0,0,0.05,17,0)" xlink:href="#cl"/></g><g id="Y"><use transform="matrix(0.05,0,0,0.05,0,0)" xlink:href="#cq"/><use transform="matrix(0.05,0,0,0.05,10.950000000000001,0)" xlink:href="#br"/><use transform="matrix(0.05,0,0,0.05,20.950000000000003,0)" xlink:href="#cD"/><use transform="matrix(0.05,0,0,0.05,24.900000000000002,0)" xlink:href="#cD"/><use transform="matrix(0.05,0,0,0.05,28.85,0)" xlink:href="#br"/><use transform="matrix(0.05,0,0,0.05,38.85,0)" xlink:href="#bu"/></g><path d="M115-194c55 1 70 41 70 98S169 2 115 4C84 4 66-9 55-30l1 105H24l-1-265h31l2 30c10-21 28-34 59-34zm-8 174c40 0 45-34 45-75s-6-73-45-74c-42 0-51 32-51 76 0 43 10 73 51 73" id="cE"/><g id="Z"><use transform="matrix(0.05,0,0,0.05,0,0)" xlink:href="#cn"/><use transform="matrix(0.05,0,0,0.05,8.950000000000001,0)" xlink:href="#bT"/><use transform="matrix(0.05,0,0,0.05,18.950000000000003,0)" xlink:href="#cE"/><use transform="matrix(0.05,0,0,0.05,28.950000000000003,0)" xlink:href="#cv"/></g><g id="aa"><use transform="matrix(0.05,0,0,0.05,0,0)" xlink:href="#cp"/><use transform="matrix(0.05,0,0,0.05,12,0)" xlink:href="#ch"/><use transform="matrix(0.05,0,0,0.05,17,0)" xlink:href="#cl"/></g><g id="ab"><use transform="matrix(0.05,0,0,0.05,0,0)" xlink:href="#br"/><use transform="matrix(0.05,0,0,0.05,10,0)" xlink:href="#cx"/><use transform="matrix(0.05,0,0,0.05,14.65,0)" xlink:href="#cx"/></g><g id="ac"><use transform="matrix(0.05,0,0,0.05,0,0)" xlink:href="#br"/><use transform="matrix(0.05,0,0,0.05,10,0)" xlink:href="#cx"/></g><g id="ad"><use transform="matrix(0.05,0,0,0.05,0,0)" xlink:href="#cn"/><use transform="matrix(0.05,0,0,0.05,8.950000000000001,0)" xlink:href="#bT"/><use transform="matrix(0.05,0,0,0.05,18.950000000000003,0)" xlink:href="#cE"/><use transform="matrix(0.05,0,0,0.05,28.950000000000003,0)" xlink:href="#cv"/></g><g id="ae"><use transform="matrix(0.05,0,0,0.05,0,0)" xlink:href="#cq"/><use transform="matrix(0.05,0,0,0.05,10.950000000000001,0)" xlink:href="#br"/><use transform="matrix(0.05,0,0,0.05,20.950000000000003,0)" xlink:href="#cD"/><use transform="matrix(0.05,0,0,0.05,24.900000000000002,0)" xlink:href="#cD"/><use transform="matrix(0.05,0,0,0.05,28.85,0)" xlink:href="#br"/><use transform="matrix(0.05,0,0,0.05,38.85,0)" xlink:href="#bu"/><use transform="matrix(0.05,0,0,0.05,51.800000000000004,0)" xlink:href="#cv"/><use transform="matrix(0.05,0,0,0.05,61.800000000000004,0)" xlink:href="#cz"/></g><g id="af"><use transform="matrix(0.05,0,0,0.05,0,0)" xlink:href="#ct"/><use transform="matrix(0.05,0,0,0.05,14,0)" xlink:href="#ci"/><use transform="matrix(0.05,0,0,0.05,26.950000000000003,0)" xlink:href="#cl"/></g><path d="M875 0v-623H353V0H162v-1349h191v566h522v-566h191V0H875" id="cF"/><path d="M202-1349h823v156H709v1037h316V0H202v-156h316v-1037H202v-156" id="cG"/><path d="M655-135c108 0 195-33 260-74v-336H622v-160h479v572C981-54 839 20 639 20c-388 0-526-306-526-701 0-406 129-689 529-689 261 0 392 137 461 331l-171 56c-47-131-122-231-288-231-281 0-330 245-330 533 0 179 28 314 84 407s142 139 257 139" id="cH"/><path d="M162 0v-1349h919v156H353v422h668v154H353v461h769V0H162" id="cI"/><path d="M614-1226c-167 1-283 53-283 213 0 183 186 193 334 234 230 63 463 120 463 409 0 286-219 387-518 390C309 23 131-98 79-338l185-37c34 165 149 248 351 246 184-2 324-58 324-238 0-203-207-221-372-266-210-57-422-111-422-377 0-267 201-356 470-360 279-5 430 101 480 324l-188 33c-28-141-121-215-293-213" id="cJ"/><path d="M709-1193V0H519v-1193H76v-156h1076v156H709" id="cK"/><g id="ag"><use transform="matrix(0.0087890625,0,0,0.0087890625,0,0)" xlink:href="#cF"/><use transform="matrix(0.0087890625,0,0,0.0087890625,10.8017578125,0)" xlink:href="#cG"/><use transform="matrix(0.0087890625,0,0,0.0087890625,21.603515625,0)" xlink:href="#cH"/><use transform="matrix(0.0087890625,0,0,0.0087890625,32.4052734375,0)" xlink:href="#cF"/><use transform="matrix(0.0087890625,0,0,0.0087890625,43.20703125,0)" xlink:href="#cI"/><use transform="matrix(0.0087890625,0,0,0.0087890625,54.0087890625,0)" xlink:href="#cJ"/><use transform="matrix(0.0087890625,0,0,0.0087890625,64.810546875,0)" xlink:href="#cK"/></g><path d="M622-1349c296 4 497 117 497 404 0 282-193 424-485 431H353V0H162v-1349h460zm-15 684c195-3 320-88 320-277 0-184-129-255-328-254H353v531h254" id="cL"/><path d="M1121-976c0 225-142 341-344 379L1177 0H957L591-575H353V0H162v-1349h482c281 3 477 100 477 373zM633-726c181-1 296-73 296-247 0-149-101-223-304-223H353v470h280" id="cM"/><path d="M102-681c0-398 126-689 513-689 165 0 291 58 379 174s132 287 132 515c-1 318-88 554-298 657-123 61-317 58-438-3-206-104-288-341-288-654zm749 406c94-160 97-656-5-807-57-85-130-132-231-132-104 0-178 47-234 132-101 153-99 655 1 809 57 89 130 138 232 138 109 0 184-49 237-140" id="cN"/><path d="M708-584V0H520v-584L36-1349h205l374 611 372-611h205" id="cO"/><g id="ah"><use transform="matrix(0.0087890625,0,0,0.0087890625,0,0)" xlink:href="#cL"/><use transform="matrix(0.0087890625,0,0,0.0087890625,10.8017578125,0)" xlink:href="#cM"/><use transform="matrix(0.0087890625,0,0,0.0087890625,21.603515625,0)" xlink:href="#cG"/><use transform="matrix(0.0087890625,0,0,0.0087890625,32.4052734375,0)" xlink:href="#cN"/><use transform="matrix(0.0087890625,0,0,0.0087890625,43.20703125,0)" xlink:href="#cM"/><use transform="matrix(0.0087890625,0,0,0.0087890625,54.0087890625,0)" xlink:href="#cG"/><use transform="matrix(0.0087890625,0,0,0.0087890625,64.810546875,0)" xlink:href="#cK"/><use transform="matrix(0.0087890625,0,0,0.0087890625,75.6123046875,0)" xlink:href="#cO"/></g><path d="M334-464v-160h560v160H334" id="cP"/><path d="M116-154v-153l858-367-858-366v-154l995 418v205" id="cQ"/><g id="ai"><use transform="matrix(0.0087890625,0,0,0.0087890625,0,0)" xlink:href="#cP"/><use transform="matrix(0.0087890625,0,0,0.0087890625,10.8017578125,0)" xlink:href="#cP"/><use transform="matrix(0.0087890625,0,0,0.0087890625,21.603515625,0)" xlink:href="#cQ"/></g><path d="M237 0v-1349h191v1193h672V0H237" id="cR"/><path d="M1018 0H810c-67-251-137-496-194-756C558-495 487-250 419 0H211L0-1349h189c48 393 110 772 142 1181 58-262 128-512 197-763h175c69 251 139 500 197 763 37-402 92-789 139-1181h189" id="cS"/><g id="aj"><use transform="matrix(0.0087890625,0,0,0.0087890625,0,0)" xlink:href="#cR"/><use transform="matrix(0.0087890625,0,0,0.0087890625,10.8017578125,0)" xlink:href="#cN"/><use transform="matrix(0.0087890625,0,0,0.0087890625,21.603515625,0)" xlink:href="#cS"/><use transform="matrix(0.0087890625,0,0,0.0087890625,32.4052734375,0)" xlink:href="#cI"/><use transform="matrix(0.0087890625,0,0,0.0087890625,43.20703125,0)" xlink:href="#cJ"/><use transform="matrix(0.0087890625,0,0,0.0087890625,54.0087890625,0)" xlink:href="#cK"/></g><g id="ak"><use transform="matrix(0.0087890625,0,0,0.0087890625,0,0)" xlink:href="#cL"/><use transform="matrix(0.0087890625,0,0,0.0087890625,10.8017578125,0)" xlink:href="#cM"/><use transform="matrix(0.0087890625,0,0,0.0087890625,21.603515625,0)" xlink:href="#cG"/><use transform="matrix(0.0087890625,0,0,0.0087890625,32.4052734375,0)" xlink:href="#cN"/><use transform="matrix(0.0087890625,0,0,0.0087890625,43.20703125,0)" xlink:href="#cM"/><use transform="matrix(0.0087890625,0,0,0.0087890625,54.0087890625,0)" xlink:href="#cG"/><use transform="matrix(0.0087890625,0,0,0.0087890625,64.810546875,0)" xlink:href="#cK"/><use transform="matrix(0.0087890625,0,0,0.0087890625,75.6123046875,0)" xlink:href="#cO"/></g><g id="al"><use transform="matrix(0.05,0,0,0.05,0,0)" xlink:href="#co"/><use transform="matrix(0.05,0,0,0.05,12,0)" xlink:href="#cz"/><use transform="matrix(0.05,0,0,0.05,17.95,0)" xlink:href="#cz"/><use transform="matrix(0.05,0,0,0.05,23.9,0)" xlink:href="#bV"/><use transform="matrix(0.05,0,0,0.05,27.849999999999994,0)" xlink:href="#bU"/><use transform="matrix(0.05,0,0,0.05,36.849999999999994,0)" xlink:href="#bT"/><use transform="matrix(0.05,0,0,0.05,46.849999999999994,0)" xlink:href="#cD"/></g><g id="am"><use transform="matrix(0.05,0,0,0.05,0,0)" xlink:href="#bT"/><use transform="matrix(0.05,0,0,0.05,10,0)" xlink:href="#bs"/></g><path d="M115-194c53 0 69 39 70 98 0 66-23 100-70 100C84 3 66-7 56-30L54 0H23l1-261h32v101c10-23 28-34 59-34zm-8 174c40 0 45-34 45-75 0-40-5-75-45-74-42 0-51 32-51 76 0 43 10 73 51 73" id="cT"/><g id="an"><use transform="matrix(0.05,0,0,0.05,0,0)" xlink:href="#cm"/><use transform="matrix(0.05,0,0,0.05,14,0)" xlink:href="#cz"/><use transform="matrix(0.05,0,0,0.05,19.95,0)" xlink:href="#bT"/><use transform="matrix(0.05,0,0,0.05,29.950000000000003,0)" xlink:href="#cT"/></g><path d="M68-38c1 34 0 65-14 84H32c9-13 17-26 17-46H33v-38h35" id="cU"/><g id="ao"><use transform="matrix(0.05,0,0,0.05,0,0)" xlink:href="#bt"/><use transform="matrix(0.05,0,0,0.05,12,0)" xlink:href="#bu"/><use transform="matrix(0.05,0,0,0.05,24.950000000000003,0)" xlink:href="#br"/><use transform="matrix(0.05,0,0,0.05,34.95,0)" xlink:href="#bv"/><use transform="matrix(0.05,0,0,0.05,43.95,0)" xlink:href="#cU"/></g><path d="M106-169C34-169 62-67 57 0H25v-261h32l-1 103c12-21 28-36 61-36 89 0 53 116 60 194h-32v-121c2-32-8-49-39-48" id="cV"/><g id="ap"><use transform="matrix(0.05,0,0,0.05,0,0)" xlink:href="#bs"/><use transform="matrix(0.05,0,0,0.05,5,0)" xlink:href="#cV"/><use transform="matrix(0.05,0,0,0.05,15,0)" xlink:href="#cz"/><use transform="matrix(0.05,0,0,0.05,20.95,0)" xlink:href="#br"/><use transform="matrix(0.05,0,0,0.05,30.950000000000003,0)" xlink:href="#bu"/></g><g id="aq"><use transform="matrix(0.05,0,0,0.05,0,0)" xlink:href="#bV"/><use transform="matrix(0.05,0,0,0.05,3.95,0)" xlink:href="#bX"/><use transform="matrix(0.05,0,0,0.05,13.949999999999998,0)" xlink:href="#bs"/><use transform="matrix(0.05,0,0,0.05,18.95,0)" xlink:href="#br"/></g><g id="ar"><use transform="matrix(0.05,0,0,0.05,0,0)" xlink:href="#cT"/><use transform="matrix(0.05,0,0,0.05,10,0)" xlink:href="#bT"/><use transform="matrix(0.05,0,0,0.05,20,0)" xlink:href="#cb"/><use transform="matrix(0.05,0,0,0.05,29,0)" xlink:href="#bv"/><use transform="matrix(0.05,0,0,0.05,38,0)" xlink:href="#cv"/><use transform="matrix(0.05,0,0,0.05,48,0)" xlink:href="#bs"/></g><path d="M650-1214c-281 0-336 244-336 533 0 295 60 546 347 546 188 0 263-142 322-282l159 65C1058-155 935 20 659 20c-401 0-546-295-546-701 0-407 135-689 536-689 264 0 391 146 466 335l-168 65c-47-129-127-244-297-244" id="cW"/><path d="M912-211c-10-84-18-177-18-274v-864h172V0H836L316-1130c7 79 16 167 16 254V0H162v-1349h222" id="cX"/><path d="M604-135c236 0 291-142 291-376v-838h190v859c5 340-142 510-480 510-326 0-463-164-463-492v-877h191v851c-3 222 46 363 271 363" id="cY"/><g id="as"><use transform="matrix(0.0087890625,0,0,0.0087890625,0,0)" xlink:href="#cW"/><use transform="matrix(0.0087890625,0,0,0.0087890625,10.8017578125,0)" xlink:href="#cN"/><use transform="matrix(0.0087890625,0,0,0.0087890625,21.603515625,0)" xlink:href="#cX"/><use transform="matrix(0.0087890625,0,0,0.0087890625,32.4052734375,0)" xlink:href="#cK"/><use transform="matrix(0.0087890625,0,0,0.0087890625,43.20703125,0)" xlink:href="#cG"/><use transform="matrix(0.0087890625,0,0,0.0087890625,54.0087890625,0)" xlink:href="#cX"/><use transform="matrix(0.0087890625,0,0,0.0087890625,64.810546875,0)" xlink:href="#cY"/><use transform="matrix(0.0087890625,0,0,0.0087890625,75.6123046875,0)" xlink:href="#cI"/></g><path d="M1034 0L896-382H333L196 0H0l510-1349h217L1228 0h-194zM847-531c-77-225-157-447-231-674-69 231-154 451-232 674h463" id="cZ"/><path d="M713 0H515L10-1349h201C345-955 498-579 615-168c116-411 269-787 402-1181h201" id="da"/><g id="at"><use transform="matrix(0.0087890625,0,0,0.0087890625,0,0)" xlink:href="#cX"/><use transform="matrix(0.0087890625,0,0,0.0087890625,10.8017578125,0)" xlink:href="#cZ"/><use transform="matrix(0.0087890625,0,0,0.0087890625,21.603515625,0)" xlink:href="#da"/><use transform="matrix(0.0087890625,0,0,0.0087890625,32.4052734375,0)" xlink:href="#cG"/><use transform="matrix(0.0087890625,0,0,0.0087890625,43.20703125,0)" xlink:href="#cH"/><use transform="matrix(0.0087890625,0,0,0.0087890625,54.0087890625,0)" xlink:href="#cZ"/><use transform="matrix(0.0087890625,0,0,0.0087890625,64.810546875,0)" xlink:href="#cK"/><use transform="matrix(0.0087890625,0,0,0.0087890625,75.6123046875,0)" xlink:href="#cG"/><use transform="matrix(0.0087890625,0,0,0.0087890625,86.4140625,0)" xlink:href="#cN"/><use transform="matrix(0.0087890625,0,0,0.0087890625,97.2158203125,0)" xlink:href="#cX"/></g><g id="au"><use transform="matrix(0.05,0,0,0.05,0,0)" xlink:href="#bt"/><use transform="matrix(0.05,0,0,0.05,12,0)" xlink:href="#bu"/><use transform="matrix(0.05,0,0,0.05,24.950000000000003,0)" xlink:href="#br"/><use transform="matrix(0.05,0,0,0.05,34.95,0)" xlink:href="#bv"/></g><g id="av"><use transform="matrix(0.05,0,0,0.05,0,0)" xlink:href="#ci"/><use transform="matrix(0.05,0,0,0.05,12.950000000000001,0)" xlink:href="#cv"/><use transform="matrix(0.05,0,0,0.05,22.950000000000003,0)" xlink:href="#bs"/><use transform="matrix(0.05,0,0,0.05,27.950000000000003,0)" xlink:href="#cz"/><use transform="matrix(0.05,0,0,0.05,33.900000000000006,0)" xlink:href="#bV"/><use transform="matrix(0.05,0,0,0.05,37.85000000000001,0)" xlink:href="#cv"/><use transform="matrix(0.05,0,0,0.05,47.85000000000001,0)" xlink:href="#bU"/><use transform="matrix(0.05,0,0,0.05,56.85,0)" xlink:href="#cv"/><use transform="matrix(0.05,0,0,0.05,66.85000000000001,0)" xlink:href="#ca"/></g><path d="M84 4C-5 8 30-112 23-190h32v120c0 31 7 50 39 49 72-2 45-101 50-169h31l1 190h-30c-1-10 1-25-2-33-11 22-28 36-60 37" id="db"/><g id="aw"><use transform="matrix(0.05,0,0,0.05,0,0)" xlink:href="#bY"/><use transform="matrix(0.05,0,0,0.05,12.950000000000001,0)" xlink:href="#br"/><use transform="matrix(0.05,0,0,0.05,22.950000000000003,0)" xlink:href="#bX"/><use transform="matrix(0.05,0,0,0.05,32.95,0)" xlink:href="#bs"/><use transform="matrix(0.05,0,0,0.05,37.95,0)" xlink:href="#bV"/><use transform="matrix(0.05,0,0,0.05,41.900000000000006,0)" xlink:href="#bX"/><use transform="matrix(0.05,0,0,0.05,51.900000000000006,0)" xlink:href="#db"/><use transform="matrix(0.05,0,0,0.05,61.900000000000006,0)" xlink:href="#cv"/></g><g id="ax"><use transform="matrix(0.05,0,0,0.05,0,0)" xlink:href="#bq"/><use transform="matrix(0.05,0,0,0.05,12.950000000000001,0)" xlink:href="#bT"/><use transform="matrix(0.05,0,0,0.05,22.950000000000003,0)" xlink:href="#bU"/></g><path d="M137 0h-34L2-248h35l83 218 83-218h36" id="dc"/><g id="ay"><use transform="matrix(0.05,0,0,0.05,0,0)" xlink:href="#bq"/><use transform="matrix(0.05,0,0,0.05,12.950000000000001,0)" xlink:href="#co"/><use transform="matrix(0.05,0,0,0.05,23.6,0)" xlink:href="#dc"/></g><g id="az"><use transform="matrix(0.05,0,0,0.05,0,0)" xlink:href="#cj"/><use transform="matrix(0.05,0,0,0.05,12,0)" xlink:href="#cn"/><use transform="matrix(0.05,0,0,0.05,21.6,0)" xlink:href="#co"/><use transform="matrix(0.05,0,0,0.05,33.6,0)" xlink:href="#ci"/><use transform="matrix(0.05,0,0,0.05,46.2,0)" xlink:href="#cn"/></g><g id="aA"><use transform="matrix(0.05,0,0,0.05,0,0)" xlink:href="#cl"/><use transform="matrix(0.05,0,0,0.05,12.950000000000001,0)" xlink:href="#cz"/><use transform="matrix(0.05,0,0,0.05,18.900000000000002,0)" xlink:href="#bV"/><use transform="matrix(0.05,0,0,0.05,22.85,0)" xlink:href="#bU"/><use transform="matrix(0.05,0,0,0.05,31.85,0)" xlink:href="#cv"/></g><g id="aB"><use transform="matrix(0.05,0,0,0.05,0,0)" xlink:href="#br"/><use transform="matrix(0.05,0,0,0.05,10,0)" xlink:href="#bU"/><use transform="matrix(0.05,0,0,0.05,19,0)" xlink:href="#cv"/><use transform="matrix(0.05,0,0,0.05,29,0)" xlink:href="#cz"/></g><g id="aC"><use transform="matrix(0.05,0,0,0.05,0,0)" xlink:href="#bW"/><use transform="matrix(0.05,0,0,0.05,10,0)" xlink:href="#bT"/><use transform="matrix(0.05,0,0,0.05,20,0)" xlink:href="#cE"/></g><g id="aD"><use transform="matrix(0.05,0,0,0.05,0,0)" xlink:href="#bW"/><use transform="matrix(0.05,0,0,0.05,10,0)" xlink:href="#bT"/><use transform="matrix(0.05,0,0,0.05,20,0)" xlink:href="#cE"/></g><g id="aE"><use transform="matrix(0.05,0,0,0.05,0,0)" xlink:href="#cT"/><use transform="matrix(0.05,0,0,0.05,10,0)" xlink:href="#bT"/><use transform="matrix(0.05,0,0,0.05,20,0)" xlink:href="#cw"/><use transform="matrix(0.05,0,0,0.05,29,0)" xlink:href="#bv"/></g><g id="aF"><use transform="matrix(0.05,0,0,0.05,0,0)" xlink:href="#bs"/><use transform="matrix(0.05,0,0,0.05,5,0)" xlink:href="#br"/></g><g id="aG"><use transform="matrix(0.05,0,0,0.05,0,0)" xlink:href="#cb"/><use transform="matrix(0.05,0,0,0.05,9,0)" xlink:href="#bT"/><use transform="matrix(0.05,0,0,0.05,19,0)" xlink:href="#cx"/><use transform="matrix(0.05,0,0,0.05,24,0)" xlink:href="#cv"/><use transform="matrix(0.05,0,0,0.05,34,0)" xlink:href="#bs"/><use transform="matrix(0.05,0,0,0.05,39,0)" xlink:href="#cy"/></g><g id="aH"><use transform="matrix(0.05,0,0,0.05,0,0)" xlink:href="#bq"/><use transform="matrix(0.05,0,0,0.05,12.950000000000001,0)" xlink:href="#br"/></g></defs></g></svg>